<svg width="630" height="640" viewBox="0 0 630 640" fill="none" xmlns="http://www.w3.org/2000/svg">
<ellipse cx="315" cy="320" rx="315" ry="320" fill="black"/>
<ellipse cx="315" cy="320" rx="291.627" ry="297.931" fill="#9C9C9C"/>
<path d="M324.985 231.126C280.252 390.561 338.299 322.693 372.914 268.83L424.837 371.17L472.766 268.83L289.039 414.261L157.234 161.103H448.801L372.914 478.897" stroke="black" stroke-width="8"/>
<path d="M107.784 508.829C107.453 507.617 107.442 506.51 107.752 505.508C108.092 504.455 108.833 503.8 109.974 503.543C110.947 503.324 111.865 503.317 112.728 503.521C113.592 503.726 114.144 504.267 114.384 505.145C114.852 506.859 115.424 509.281 116.1 512.413C116.754 515.461 117.28 517.716 117.68 519.179C118.308 521.478 119.232 524.531 120.452 528.339C121.626 531.979 122.448 534.657 122.916 536.37C123.293 537.75 123.552 538.779 123.692 539.457C123.875 540.126 123.677 540.88 123.099 541.721C122.552 542.51 121.517 543.076 119.995 543.419C119.192 543.6 118.46 543.632 117.8 543.514C117.17 543.345 116.704 543.118 116.402 542.831C113.764 540.896 109.76 537.494 104.391 532.625C98.3736 527.192 93.5498 523.087 89.9191 520.311C91.0797 523.245 92.2539 526.885 93.4418 531.232C93.9672 533.155 94.6102 535.673 95.3709 538.785C96.1625 541.846 96.6262 543.871 96.762 544.861C96.9242 546.112 96.8007 547.138 96.3917 547.94C96.0134 548.691 95.2114 549.205 93.9855 549.481C93.0555 549.691 92.2894 549.597 91.6874 549.2C91.1162 548.752 90.6112 547.89 90.1726 546.613C89.662 544.909 89.0653 542.314 88.3823 538.829C88.2761 538.276 88.0825 537.321 87.8016 535.965C87.5206 534.608 87.2374 533.407 86.9518 532.362C86.1637 529.478 85.1134 526.209 83.801 522.555C82.428 518.516 81.4731 515.514 80.9362 513.55C80.6621 512.546 80.8101 511.692 81.3803 510.987C81.9927 510.272 82.7851 509.805 83.7573 509.585C84.6028 509.395 85.5476 509.404 86.5918 509.612C91.4609 513.307 98.2246 518.927 106.883 526.472L115.311 534.157C115.17 533.479 114.934 532.534 114.603 531.322C114.02 529.19 113.35 526.9 112.592 524.453C111.833 522.006 111.313 520.348 111.031 519.48C109.711 515.473 108.629 511.923 107.784 508.829Z" fill="#FCFCFC"/>
<path d="M151.419 523.106C151.104 521.49 151.088 519.826 151.372 518.113C151.648 516.358 152.145 514.721 152.863 513.202C153.582 511.682 154.928 510.325 156.901 509.131C158.866 507.893 160.683 507.14 162.352 506.872C164.063 506.597 165.841 506.552 167.687 506.738C169.575 506.917 170.957 507.44 171.832 508.308C173.846 510.265 175.061 512.307 175.475 514.434C175.699 515.582 175.633 516.602 175.277 517.492C174.964 518.376 174.45 519.358 173.734 520.438C173.156 521.321 172.1 522.017 170.567 522.527C169.076 523.03 167.561 523.405 166.021 523.653C165.037 523.811 163.822 523.919 162.377 523.976C160.924 523.99 159.505 523.955 158.121 523.871C158.372 524.708 158.748 525.503 159.248 526.256C159.748 527.009 160.274 527.56 160.828 527.91C161.841 528.58 162.818 528.95 163.758 529.018C164.74 529.079 165.959 528.993 167.414 528.759C168.954 528.511 170.337 528.025 171.564 527.301C172.559 526.747 173.399 526.414 174.083 526.304C174.896 526.173 175.566 526.329 176.094 526.77C176.613 527.169 176.947 527.752 177.096 528.517C177.304 529.581 176.853 530.552 175.745 531.432C174.637 532.312 173.303 533.053 171.744 533.655C170.219 534.207 168.965 534.563 167.981 534.721C165.97 535.044 163.953 534.996 161.929 534.576C159.906 534.156 158.145 533.386 156.647 532.267C155.388 531.241 154.297 529.947 153.375 528.385C152.444 526.78 151.792 525.02 151.419 523.106ZM163.73 512.243C162.789 512.395 161.885 512.738 161.018 513.272C160.143 513.763 159.469 514.376 158.994 515.111C158.382 516.043 157.975 516.788 157.775 517.346C157.61 517.856 157.567 518.542 157.648 519.407C158.783 519.575 161.041 519.387 164.421 518.844C166.261 518.548 167.619 518.044 168.495 517.333C169.414 516.615 169.787 515.809 169.612 514.916C169.438 514.023 168.724 513.304 167.471 512.76C166.218 512.216 164.971 512.044 163.73 512.243Z" fill="#FCFCFC"/>
<path d="M230.632 510.771C230.779 509.8 230.907 508.481 231.016 506.816C231.219 504.838 231.391 503.341 231.533 502.326C231.675 501.311 231.921 500.438 232.271 499.708C232.654 498.887 233.003 498.331 233.318 498.039C233.675 497.743 234.07 497.574 234.501 497.532C236.744 497.314 237.967 498.065 238.17 499.787C238.272 500.647 238.117 502.295 237.706 504.729C236.233 511.837 235.223 517.333 234.678 521.216C234.434 522.851 233.932 524.14 233.171 525.085C232.405 525.986 231.289 526.509 229.822 526.651C229.089 526.723 228.294 526.452 227.436 525.839C226.617 525.179 225.909 524.355 225.313 523.368L224.395 521.695C222.827 518.757 221.645 516.5 220.848 514.923C220.089 513.299 219.545 511.829 219.215 510.511L218.877 512.634C218.278 516.435 217.606 519.983 216.86 523.277C216.493 524.967 215.942 526.217 215.209 527.029C214.471 527.797 213.455 528.244 212.161 528.37C211.384 528.446 210.674 528.341 210.03 528.055C209.428 527.765 208.821 527.237 208.207 526.47C207.385 525.418 206.538 523.977 205.668 522.146C204.841 520.311 203.609 517.449 201.972 513.561C201.209 511.894 200.478 510.137 199.78 508.289C199.077 506.399 198.68 505.066 198.589 504.292C198.482 503.388 198.635 502.655 199.049 502.092C199.462 501.53 200.122 501.204 201.028 501.116C202.192 501.003 203.04 501.16 203.57 501.587C204.095 501.971 204.605 502.596 205.1 503.462C205.498 504.99 206.232 507.139 207.3 509.908L209.439 515.837C209.581 516.302 209.957 517.267 210.566 518.731L211.304 520.553C212.014 518.438 212.584 516.424 213.012 514.51C213.441 512.597 213.884 510.247 214.34 507.46C214.363 507.284 214.619 505.757 215.108 502.88C215.562 501.922 215.98 501.206 216.36 500.734C216.736 500.219 217.139 499.94 217.57 499.898C218.433 499.814 219.199 500.022 219.869 500.523C220.577 500.977 221.127 501.576 221.521 502.321C222.236 503.949 222.869 505.433 223.42 506.772C223.659 507.315 224.207 508.633 225.064 510.726C225.96 512.771 226.753 514.501 227.443 515.913C228.133 517.326 228.686 518.317 229.103 518.886L230.632 510.771Z" fill="#FCFCFC"/>
<path d="M287.338 507.996C287.694 508.2 288.384 508.587 289.406 509.157C290.47 509.682 291.193 510.328 291.573 511.095C291.954 511.862 292.175 512.938 292.236 514.323C292.304 515.882 291.91 517.283 291.054 518.528C290.196 519.73 289.067 520.682 287.666 521.383C286.648 521.897 285.387 522.311 283.882 522.626C282.421 522.939 281.258 523.111 280.392 523.143C279.526 523.174 278.394 523.085 276.997 522.875C275.643 522.664 274.702 522.46 274.172 522.262C272.796 521.532 271.585 520.622 270.539 519.532C269.537 518.441 269.01 517.311 268.959 516.142C268.921 515.277 269.173 514.595 269.715 514.099C270.255 513.559 270.98 513.272 271.889 513.239C272.322 513.224 272.784 513.38 273.276 513.709C273.766 513.995 274.105 514.308 274.293 514.648C274.819 515.757 275.657 516.572 276.808 517.094C277.959 517.616 279.119 517.855 280.288 517.813C281.803 517.758 283.2 517.469 284.479 516.946C285.755 516.379 286.374 515.663 286.336 514.797C286.319 514.407 286.197 514.108 285.971 513.9C285.787 513.646 285.515 513.396 285.158 513.149C284.532 512.738 283.608 512.424 282.384 512.209C281.158 511.949 280.37 511.783 280.02 511.709C278.227 511.384 276.469 510.862 274.746 510.144C273.021 509.383 271.636 508.457 270.59 507.368C269.545 506.278 268.983 504.846 268.905 503.071C268.854 501.902 269.233 500.674 270.044 499.388C270.853 498.057 271.788 497.113 272.848 496.554C273.614 496.223 274.899 495.851 276.702 495.439C278.549 495.025 279.797 494.806 280.447 494.783C281.443 494.747 282.53 494.816 283.709 494.99C284.886 495.121 285.787 495.391 286.412 495.802C287.612 496.453 288.597 497.154 289.367 497.907C290.136 498.616 290.541 499.447 290.583 500.399C290.604 500.875 290.518 501.399 290.327 501.969C290.133 502.497 289.887 502.831 289.59 502.972C288.954 503.298 288.202 503.477 287.336 503.509C286.947 503.523 286.617 503.426 286.348 503.219C286.122 503.011 285.803 502.675 285.393 502.213C284.884 501.495 284.41 501.078 283.972 500.964C283.446 500.853 282.682 500.729 281.678 500.592C280.673 500.412 279.997 500.328 279.65 500.34C278.654 500.376 277.627 500.695 276.569 501.297C275.555 501.898 275.064 502.566 275.096 503.302C275.113 503.692 275.278 503.989 275.591 504.195C275.946 504.399 276.301 504.581 276.656 504.741C277.053 504.9 277.317 504.999 277.449 505.038C278.378 505.438 279.39 505.77 280.486 506.033C281.625 506.296 282.327 506.465 282.59 506.543C284.953 507.021 286.536 507.505 287.338 507.996Z" fill="#FCFCFC"/>
<path d="M322.779 511.979C322.768 513.626 322.999 514.905 323.47 515.818C323.985 516.687 324.632 517.124 325.412 517.128C325.845 517.13 326.257 517.111 326.647 517.069C327.038 516.985 327.428 516.943 327.818 516.945C328.252 516.948 328.619 517.166 328.919 517.601C329.263 518.036 329.434 518.514 329.43 519.034C329.424 520.074 328.921 520.894 327.92 521.496C326.964 522.054 325.662 522.329 324.015 522.321C322.845 522.315 321.656 521.962 320.447 521.262C319.281 520.52 318.313 519.388 317.542 517.867C316.772 516.303 316.394 514.373 316.408 512.076C316.438 507.137 316.55 502.955 316.745 499.533C316.986 495.461 317.126 490.327 317.164 484.13C317.176 482.18 317.293 480.816 317.514 480.037C317.778 479.431 318.192 478.979 318.757 478.678C319.366 478.335 319.996 478.165 320.646 478.168C321.296 478.171 321.858 478.282 322.334 478.502C322.852 478.721 323.197 479.069 323.367 479.547C323.537 480.068 323.642 480.588 323.683 481.109C323.766 481.586 323.805 482.279 323.8 483.189C323.789 484.966 323.713 486.677 323.573 488.323C323.475 490.316 323.422 491.767 323.417 492.677C323.023 500.302 322.811 506.736 322.779 511.979Z" fill="#FCFCFC"/>
<path d="M347.236 508.452C347.331 506.808 347.73 505.179 348.432 503.564C349.136 501.906 350.026 500.409 351.102 499.072C352.178 497.736 353.824 496.687 356.038 495.926C358.255 495.121 360.208 494.759 361.896 494.84C363.627 494.923 365.366 495.245 367.113 495.807C368.903 496.37 370.116 497.165 370.75 498.194C372.221 500.52 372.893 502.765 372.767 504.928C372.699 506.096 372.382 507.078 371.815 507.875C371.291 508.674 370.546 509.528 369.582 510.436C368.801 511.179 367.602 511.642 365.986 511.825C364.412 512.01 362.846 512.065 361.288 511.99C360.293 511.942 359.086 511.798 357.668 511.556C356.252 511.271 354.882 510.945 353.558 510.578C353.594 511.447 353.761 512.301 354.06 513.14C354.358 513.978 354.733 514.625 355.184 515.081C356.002 515.944 356.859 516.506 357.755 516.766C358.695 517.028 359.9 517.194 361.372 517.265C362.93 517.34 364.395 517.15 365.767 516.695C366.872 516.358 367.771 516.205 368.463 516.239C369.286 516.278 369.898 516.568 370.301 517.108C370.706 517.604 370.886 518.242 370.84 519.021C370.777 520.102 370.098 520.959 368.803 521.591C367.507 522.223 366.027 522.672 364.362 522.939C362.743 523.165 361.436 523.254 360.44 523.207C358.406 523.109 356.458 522.647 354.596 521.82C352.734 520.993 351.215 519.879 350.038 518.478C349.07 517.216 348.332 515.728 347.824 514.012C347.318 512.252 347.122 510.399 347.236 508.452ZM361.899 500.372C360.947 500.326 359.984 500.475 359.009 500.818C358.036 501.119 357.228 501.579 356.584 502.199C355.758 502.983 355.177 503.628 354.844 504.132C354.557 504.596 354.345 505.258 354.208 506.119C355.27 506.517 357.51 506.798 360.93 506.962C362.791 507.052 364.236 506.839 365.264 506.324C366.335 505.812 366.898 505.101 366.951 504.193C367.003 503.285 366.489 502.436 365.406 501.646C364.323 500.857 363.155 500.432 361.899 500.372Z" fill="#FCFCFC"/>
<path d="M398.013 502.553C397.419 502.409 396.953 502.104 396.615 501.636C396.32 501.173 396.207 500.639 396.277 500.037C396.312 499.736 396.414 499.419 396.584 499.087C396.796 498.759 397.068 498.481 397.4 498.251C398.026 497.745 399.568 497.61 402.027 497.846C402.567 496.2 402.937 494.516 403.137 492.794C403.212 492.149 403.255 491.587 403.267 491.109C403.279 490.632 403.3 490.264 403.33 490.006C403.44 489.059 403.867 488.382 404.612 487.974C405.401 487.571 406.248 487.413 407.154 487.499C408.275 487.607 408.998 487.959 409.321 488.556C409.687 489.156 409.783 490.21 409.608 491.717C409.348 493.955 408.899 496.132 408.261 498.247C408.951 498.313 409.905 498.361 411.123 498.39C412.772 498.461 413.963 498.532 414.697 498.602C415.43 498.672 416.033 498.926 416.506 499.363C417.027 499.761 417.249 500.283 417.174 500.928C416.98 502.607 416.11 503.525 414.565 503.682C412.924 503.916 410.416 503.915 407.042 503.679C406.717 505.345 406.44 507.169 406.21 509.149C405.851 512.248 405.75 514.806 405.908 516.823C406.007 518.225 406.321 519.278 406.85 519.982C407.427 520.646 408.341 521.039 409.592 521.158C410.325 521.229 411.103 521.107 411.924 520.794C412.477 520.542 412.969 520.437 413.4 520.479C414.004 520.536 414.413 520.771 414.627 521.184C414.884 521.6 414.975 522.131 414.9 522.777C414.76 523.982 413.995 524.931 412.606 525.625C411.222 526.276 409.517 526.504 407.489 526.31C406.238 526.191 405.001 525.767 403.777 525.041C402.596 524.318 401.626 523.464 400.868 522.477C400.754 522.336 400.574 521.818 400.329 520.924C400.084 520.03 399.889 519.076 399.746 518.061C399.549 515.997 399.663 513.135 400.088 509.476C400.273 507.884 400.606 505.761 401.089 503.109L398.013 502.553Z" fill="#FCFCFC"/>
<path d="M438.948 506.707C438.362 506.538 437.912 506.213 437.598 505.732C437.326 505.256 437.241 504.72 437.342 504.122C437.393 503.822 437.511 503.511 437.698 503.187C437.927 502.869 438.214 502.603 438.558 502.389C439.209 501.911 440.759 501.842 443.205 502.183C443.83 500.565 444.287 498.901 444.575 497.192C444.684 496.551 444.756 495.992 444.792 495.516C444.829 495.04 444.869 494.674 444.912 494.418C445.071 493.478 445.533 492.821 446.299 492.446C447.108 492.078 447.964 491.957 448.865 492.082C449.981 492.238 450.685 492.62 450.977 493.23C451.313 493.845 451.354 494.9 451.101 496.396C450.726 498.618 450.165 500.77 449.418 502.852C450.104 502.948 451.056 503.037 452.272 503.119C453.917 503.261 455.105 503.382 455.834 503.484C456.564 503.586 457.154 503.865 457.604 504.321C458.104 504.741 458.3 505.271 458.192 505.912C457.91 507.578 456.993 508.456 455.44 508.546C453.788 508.709 451.28 508.6 447.918 508.219C447.508 509.868 447.136 511.675 446.804 513.64C446.285 516.717 446.052 519.265 446.106 521.284C446.133 522.687 446.392 523.751 446.885 524.476C447.428 525.163 448.321 525.594 449.566 525.768C450.296 525.869 451.079 525.782 451.917 525.505C452.482 525.277 452.98 525.194 453.409 525.254C454.01 525.337 454.406 525.589 454.599 526.01C454.834 526.436 454.898 526.97 454.79 527.611C454.588 528.807 453.774 529.722 452.349 530.354C450.932 530.944 449.215 531.098 447.197 530.817C445.953 530.643 444.737 530.168 443.551 529.39C442.407 528.619 441.482 527.724 440.775 526.707C440.668 526.561 440.515 526.037 440.316 525.135C440.117 524.232 439.972 523.272 439.88 522.253C439.79 520.185 440.052 517.335 440.666 513.703C440.933 512.122 441.376 510.019 441.995 507.394L438.948 506.707Z" fill="#FCFCFC"/>
<path d="M477.36 520.938C477.726 519.333 478.391 517.784 479.354 516.291C480.326 514.756 481.456 513.404 482.744 512.237C484.033 511.069 485.838 510.264 488.16 509.82C490.492 509.334 492.488 509.247 494.149 509.56C495.852 509.881 497.524 510.438 499.164 511.232C500.846 512.033 501.917 512.984 502.377 514.084C503.45 516.578 503.746 518.881 503.264 520.993C503.004 522.134 502.526 523.057 501.832 523.764C501.18 524.478 500.301 525.216 499.195 525.977C498.297 526.601 497.031 526.891 495.398 526.848C493.807 526.812 492.245 526.65 490.712 526.362C489.733 526.177 488.559 525.868 487.193 525.434C485.836 524.958 484.531 524.448 483.278 523.904C483.171 524.765 483.195 525.629 483.353 526.496C483.51 527.362 483.775 528.051 484.147 528.562C484.815 529.525 485.572 530.196 486.418 530.576C487.307 530.964 488.475 531.294 489.923 531.567C491.456 531.856 492.941 531.871 494.377 531.612C495.528 531.433 496.444 531.407 497.126 531.535C497.935 531.688 498.494 532.058 498.804 532.645C499.124 533.19 499.197 533.842 499.024 534.603C498.782 535.659 497.967 536.409 496.578 536.852C495.189 537.295 493.646 537.534 491.951 537.567C490.308 537.566 488.996 537.473 488.017 537.288C486.016 536.911 484.16 536.187 482.45 535.116C480.741 534.045 479.418 532.738 478.482 531.196C477.73 529.821 477.244 528.253 477.024 526.493C476.814 524.691 476.926 522.839 477.36 520.938ZM493.238 515.007C492.301 514.83 491.321 514.844 490.297 515.048C489.283 515.209 488.406 515.55 487.665 516.072C486.715 516.73 486.033 517.285 485.62 517.735C485.258 518.152 484.938 518.775 484.66 519.604C485.647 520.142 487.823 520.728 491.187 521.362C493.019 521.707 494.487 521.697 495.591 521.332C496.739 520.976 497.414 520.354 497.616 519.466C497.819 518.579 497.449 517.672 496.505 516.746C495.562 515.819 494.473 515.239 493.238 515.007Z" fill="#FCFCFC"/>
<path d="M532.409 543.389C532.204 544.096 531.749 544.655 531.044 545.065C530.339 545.474 529.586 545.583 528.785 545.392C527.521 545.089 526.66 544.638 526.203 544.039C525.758 543.398 525.723 542.433 526.098 541.143C526.545 539.603 527.089 537.575 527.73 535.057C528.25 532.957 528.715 531.199 529.126 529.784C529.319 529.118 529.615 528.254 530.013 527.192C530.388 526.214 530.647 525.475 530.792 524.975C530.896 524.155 530.767 523.434 530.406 522.813C530.058 522.151 529.483 521.724 528.682 521.532C528.303 521.442 528.035 521.199 527.879 520.806C527.735 520.371 527.717 519.966 527.826 519.591C528.104 518.634 528.695 517.997 529.598 517.679C530.544 517.372 531.565 517.349 532.66 517.612C534.936 518.157 536.13 519.867 536.241 522.742C537.699 521.756 539.233 521.055 540.841 520.639C542.503 520.192 543.987 520.125 545.294 520.438C546.853 520.811 548.144 521.565 549.167 522.7C550.231 523.846 550.558 525.126 550.147 526.541C549.918 527.331 549.324 528.057 548.366 528.718C547.45 529.388 546.634 529.638 545.917 529.466C545.538 529.376 545.225 529.212 544.978 528.974C544.786 528.706 544.554 528.339 544.284 527.873C543.983 527.356 543.71 526.979 543.463 526.742C543.229 526.463 542.922 526.279 542.542 526.188C541.868 526.026 541.206 525.979 540.555 526.046C539.905 526.112 539.432 526.266 539.137 526.507C538.161 527.386 537.383 528.201 536.804 528.953C536.267 529.714 535.86 530.574 535.582 531.531C535.377 532.238 535.193 532.795 535.03 533.201L533.933 536.744C533.776 537.285 533.622 537.893 533.471 538.569C533.32 539.245 533.217 539.755 533.162 540.098C532.962 541.251 532.711 542.349 532.409 543.389Z" fill="#FCFCFC"/>
</svg>
